<?xml version="1.0" encoding="UTF-8"?>
<svg id="Capa_1" data-name="Capa 1" xmlns="http://www.w3.org/2000/svg" viewBox="0 0 1920 241.94">
  <defs>
    <style>
      .cls-1 {
        fill: #fff;
      }

      .cls-1, .cls-2 {
        stroke-width: 0px;
      }

      .cls-2 {
        fill: #fe8d0c;
      }
    </style>
  </defs>
  <path class="cls-2" d="m1426.12,204.08H493.88V68.26c0-16.78,13.61-30.39,30.39-30.39h871.46c16.78,0,30.39,13.61,30.39,30.39v135.82Z"/>
  <g>
    <path class="cls-1" d="m678.48,134.32c-3.14,0-6.17-.36-9.1-1.07-2.93-.71-5.33-1.64-7.22-2.78l4.07-9.2c1.78,1.04,3.77,1.87,5.97,2.49,2.19.62,4.33.94,6.39.94,1.21,0,2.17-.08,2.86-.24.7-.16,1.2-.39,1.53-.7.32-.3.48-.67.48-1.1,0-.68-.37-1.21-1.12-1.61-.75-.39-1.74-.72-2.97-.99s-2.58-.55-4.04-.86c-1.46-.3-2.94-.7-4.42-1.2-1.48-.5-2.84-1.16-4.07-1.98-1.23-.82-2.22-1.9-2.97-3.24-.75-1.34-1.12-3-1.12-5,0-2.32.65-4.43,1.95-6.34,1.3-1.91,3.25-3.43,5.83-4.58,2.59-1.14,5.81-1.71,9.66-1.71,2.53,0,5.03.27,7.49.8s4.67,1.36,6.64,2.46l-3.8,9.15c-1.86-.93-3.65-1.62-5.38-2.09-1.73-.46-3.42-.7-5.06-.7-1.21,0-2.18.11-2.89.32-.71.21-1.22.5-1.53.86-.3.36-.45.75-.45,1.18,0,.64.37,1.15,1.12,1.53.75.37,1.74.69,2.97.94,1.23.25,2.59.52,4.07.8,1.48.29,2.95.68,4.41,1.18,1.46.5,2.81,1.16,4.04,1.98,1.23.82,2.22,1.89,2.97,3.21.75,1.32,1.12,2.96,1.12,4.92,0,2.28-.65,4.38-1.95,6.29-1.3,1.91-3.24,3.44-5.81,4.6-2.57,1.16-5.8,1.74-9.69,1.74Z"/>
    <path class="cls-1" d="m719.36,134.32c-3.07,0-5.9-.48-8.48-1.45-2.59-.96-4.83-2.33-6.72-4.09-1.89-1.77-3.36-3.84-4.42-6.23-1.05-2.39-1.58-4.99-1.58-7.81s.53-5.47,1.58-7.84c1.05-2.37,2.52-4.44,4.42-6.21,1.89-1.77,4.13-3.13,6.72-4.09,2.59-.96,5.4-1.44,8.43-1.44s5.89.48,8.45,1.44c2.57.96,4.8,2.33,6.69,4.09,1.89,1.77,3.36,3.83,4.41,6.21,1.05,2.37,1.58,4.99,1.58,7.84s-.53,5.42-1.58,7.81c-1.05,2.39-2.52,4.47-4.41,6.23-1.89,1.77-4.12,3.13-6.69,4.09-2.57.96-5.37,1.45-8.4,1.45Zm-.05-10.22c1.18,0,2.27-.21,3.29-.64,1.02-.43,1.91-1.04,2.68-1.85.77-.8,1.36-1.78,1.79-2.94.43-1.16.64-2.47.64-3.93s-.21-2.77-.64-3.93c-.43-1.16-1.03-2.14-1.79-2.94-.77-.8-1.66-1.42-2.68-1.85-1.02-.43-2.11-.64-3.29-.64s-2.27.21-3.29.64c-1.02.43-1.91,1.04-2.68,1.85-.77.8-1.36,1.78-1.79,2.94-.43,1.16-.64,2.47-.64,3.93s.21,2.77.64,3.93c.43,1.16,1.02,2.14,1.79,2.94.77.8,1.66,1.42,2.68,1.85,1.02.43,2.11.64,3.29.64Z"/>
    <path class="cls-1" d="m745.04,133.46v-37.46h12.63v27.67h16.91v9.79h-29.54Z"/>
    <path class="cls-1" d="m778.06,133.46v-37.46h12.63v37.46h-12.63Z"/>
    <path class="cls-1" d="m816.16,134.32c-3,0-5.77-.47-8.32-1.42-2.55-.95-4.76-2.29-6.64-4.04-1.87-1.75-3.33-3.82-4.36-6.21-1.04-2.39-1.55-5.03-1.55-7.92s.52-5.53,1.55-7.92c1.03-2.39,2.49-4.46,4.36-6.21,1.87-1.75,4.08-3.09,6.64-4.04,2.55-.95,5.32-1.42,8.32-1.42,3.67,0,6.93.64,9.77,1.93,2.84,1.28,5.18,3.14,7.04,5.57l-7.97,7.12c-1.11-1.39-2.33-2.47-3.67-3.24-1.34-.77-2.85-1.15-4.52-1.15-1.32,0-2.52.21-3.59.64-1.07.43-1.99,1.05-2.76,1.87-.77.82-1.36,1.81-1.79,2.97-.43,1.16-.64,2.45-.64,3.88s.21,2.72.64,3.88c.43,1.16,1.02,2.15,1.79,2.97.77.82,1.69,1.45,2.76,1.87s2.27.64,3.59.64c1.68,0,3.18-.38,4.52-1.15,1.34-.77,2.56-1.85,3.67-3.24l7.97,7.12c-1.86,2.39-4.2,4.24-7.04,5.54-2.84,1.3-6.09,1.95-9.77,1.95Z"/>
    <path class="cls-1" d="m836.6,133.46v-37.46h12.63v37.46h-12.63Z"/>
    <path class="cls-1" d="m863.46,133.46v-27.67h-10.97v-9.79h34.57v9.79h-10.97v27.67h-12.63Z"/>
    <path class="cls-1" d="m884.39,133.46l16.37-37.46h12.42l16.38,37.46h-13.06l-12.09-31.47h4.92l-12.09,31.47h-12.84Zm9.74-6.53l3.21-9.1h17.23l3.21,9.1h-23.65Z"/>
    <path class="cls-1" d="m931.59,133.46v-37.46h18.03c3.5,0,6.52.57,9.07,1.71,2.55,1.14,4.52,2.77,5.91,4.9,1.39,2.12,2.09,4.63,2.09,7.52s-.7,5.38-2.09,7.46-3.36,3.68-5.91,4.79c-2.55,1.11-5.57,1.66-9.07,1.66h-11.02l5.62-5.19v14.61h-12.63Zm12.63-13.22l-5.62-5.73h10.22c1.75,0,3.04-.39,3.88-1.18.84-.78,1.26-1.85,1.26-3.21s-.42-2.43-1.26-3.21c-.84-.78-2.13-1.18-3.88-1.18h-10.22l5.62-5.73v20.23Zm9.79,13.22l-9.2-13.65h13.38l9.31,13.65h-13.48Z"/>
    <path class="cls-1" d="m1001.47,134.32c-3.14,0-6.17-.36-9.1-1.07-2.93-.71-5.33-1.64-7.22-2.78l4.07-9.2c1.78,1.04,3.77,1.87,5.97,2.49,2.19.62,4.33.94,6.39.94,1.21,0,2.17-.08,2.86-.24.7-.16,1.2-.39,1.53-.7.32-.3.48-.67.48-1.1,0-.68-.37-1.21-1.12-1.61-.75-.39-1.74-.72-2.97-.99-1.23-.27-2.58-.55-4.04-.86s-2.93-.7-4.42-1.2c-1.48-.5-2.84-1.16-4.07-1.98-1.23-.82-2.22-1.9-2.97-3.24-.75-1.34-1.12-3-1.12-5,0-2.32.65-4.43,1.95-6.34,1.3-1.91,3.25-3.43,5.83-4.58,2.59-1.14,5.81-1.71,9.66-1.71,2.53,0,5.03.27,7.49.8,2.46.54,4.67,1.36,6.64,2.46l-3.8,9.15c-1.86-.93-3.65-1.62-5.38-2.09-1.73-.46-3.42-.7-5.06-.7-1.21,0-2.18.11-2.89.32-.71.21-1.22.5-1.53.86-.3.36-.45.75-.45,1.18,0,.64.37,1.15,1.12,1.53.75.37,1.74.69,2.97.94,1.23.25,2.59.52,4.07.8s2.95.68,4.42,1.18c1.46.5,2.81,1.16,4.04,1.98s2.22,1.89,2.97,3.21c.75,1.32,1.12,2.96,1.12,4.92,0,2.28-.65,4.38-1.95,6.29-1.3,1.91-3.24,3.44-5.81,4.6-2.57,1.16-5.8,1.74-9.69,1.74Z"/>
    <path class="cls-1" d="m1035.08,123.94h18.73v9.53h-31.14v-37.46h30.45v9.53h-18.03v18.41Zm-.86-14.02h16.7v9.1h-16.7v-9.1Z"/>
    <path class="cls-1" d="m1058.68,133.46v-37.46h18.03c3.5,0,6.52.57,9.07,1.71,2.55,1.14,4.52,2.77,5.91,4.9,1.39,2.12,2.09,4.63,2.09,7.52s-.7,5.38-2.09,7.46-3.36,3.68-5.91,4.79c-2.55,1.11-5.58,1.66-9.07,1.66h-11.02l5.62-5.19v14.61h-12.63Zm12.63-13.22l-5.62-5.73h10.22c1.75,0,3.04-.39,3.88-1.18.84-.78,1.26-1.85,1.26-3.21s-.42-2.43-1.26-3.21c-.84-.78-2.13-1.18-3.88-1.18h-10.22l5.62-5.73v20.23Zm9.79,13.22l-9.2-13.65h13.38l9.31,13.65h-13.49Z"/>
    <path class="cls-1" d="m1110.32,133.46l-15.84-37.46h13.59l12.9,31.63h-8.08l13.27-31.63h12.42l-15.84,37.46h-12.42Z"/>
    <path class="cls-1" d="m1139.8,133.46v-37.46h12.63v37.46h-12.63Z"/>
    <path class="cls-1" d="m1177.9,134.32c-3,0-5.77-.47-8.32-1.42-2.55-.95-4.76-2.29-6.64-4.04-1.87-1.75-3.33-3.82-4.36-6.21-1.04-2.39-1.55-5.03-1.55-7.92s.52-5.53,1.55-7.92c1.04-2.39,2.49-4.46,4.36-6.21,1.87-1.75,4.08-3.09,6.64-4.04s5.32-1.42,8.32-1.42c3.67,0,6.93.64,9.77,1.93,2.84,1.28,5.18,3.14,7.04,5.57l-7.97,7.12c-1.11-1.39-2.33-2.47-3.67-3.24-1.34-.77-2.85-1.15-4.52-1.15-1.32,0-2.52.21-3.59.64-1.07.43-1.99,1.05-2.76,1.87-.77.82-1.36,1.81-1.79,2.97-.43,1.16-.64,2.45-.64,3.88s.21,2.72.64,3.88c.43,1.16,1.02,2.15,1.79,2.97.77.82,1.69,1.45,2.76,1.87s2.27.64,3.59.64c1.68,0,3.18-.38,4.52-1.15,1.34-.77,2.56-1.85,3.67-3.24l7.97,7.12c-1.86,2.39-4.2,4.24-7.04,5.54-2.84,1.3-6.09,1.95-9.77,1.95Z"/>
    <path class="cls-1" d="m1198.34,133.46v-37.46h12.63v37.46h-12.63Z"/>
    <path class="cls-1" d="m1236.76,134.32c-3.07,0-5.9-.48-8.48-1.45-2.59-.96-4.83-2.33-6.72-4.09-1.89-1.77-3.36-3.84-4.42-6.23-1.05-2.39-1.58-4.99-1.58-7.81s.53-5.47,1.58-7.84c1.05-2.37,2.52-4.44,4.42-6.21,1.89-1.77,4.13-3.13,6.72-4.09,2.59-.96,5.4-1.44,8.43-1.44s5.89.48,8.45,1.44c2.57.96,4.8,2.33,6.69,4.09,1.89,1.77,3.36,3.83,4.42,6.21,1.05,2.37,1.58,4.99,1.58,7.84s-.53,5.42-1.58,7.81c-1.05,2.39-2.52,4.47-4.42,6.23-1.89,1.77-4.12,3.13-6.69,4.09-2.57.96-5.37,1.45-8.4,1.45Zm-.05-10.22c1.18,0,2.27-.21,3.29-.64,1.02-.43,1.91-1.04,2.67-1.85.77-.8,1.37-1.78,1.79-2.94s.64-2.47.64-3.93-.21-2.77-.64-3.93-1.03-2.14-1.79-2.94-1.66-1.42-2.67-1.85c-1.02-.43-2.11-.64-3.29-.64s-2.27.21-3.29.64c-1.02.43-1.91,1.04-2.68,1.85-.77.8-1.37,1.78-1.79,2.94s-.64,2.47-.64,3.93.21,2.77.64,3.93,1.03,2.14,1.79,2.94c.77.8,1.66,1.42,2.68,1.85,1.02.43,2.11.64,3.29.64Z"/>
  </g>
  <g>
    <path class="cls-1" d="m627.48,171.72c-1.45,0-2.79-.24-4.03-.72-1.24-.48-2.32-1.16-3.23-2.04-.91-.88-1.62-1.91-2.13-3.11-.51-1.19-.76-2.5-.76-3.91s.25-2.72.76-3.91c.51-1.2,1.22-2.23,2.15-3.11.92-.88,2-1.56,3.23-2.04,1.23-.48,2.58-.72,4.05-.72,1.56,0,2.98.27,4.26.8,1.29.53,2.37,1.33,3.26,2.38l-2.28,2.15c-.69-.74-1.46-1.3-2.31-1.67-.85-.37-1.77-.56-2.77-.56s-1.91.16-2.73.49c-.82.33-1.54.79-2.15,1.39-.61.6-1.08,1.3-1.41,2.12s-.5,1.71-.5,2.69.17,1.87.5,2.69c.33.81.81,1.52,1.41,2.12.61.6,1.32,1.06,2.15,1.39.82.33,1.73.49,2.73.49s1.92-.19,2.77-.56c.85-.37,1.62-.94,2.31-1.7l2.28,2.17c-.89,1.03-1.97,1.82-3.26,2.36-1.29.54-2.72.81-4.29.81Z"/>
    <path class="cls-1" d="m644.07,171.64c-1.48,0-2.81-.32-3.97-.96-1.16-.64-2.07-1.53-2.74-2.65-.67-1.12-1-2.4-1-3.83s.33-2.73,1-3.84c.67-1.11,1.58-1.99,2.74-2.62,1.16-.63,2.48-.95,3.97-.95s2.84.32,4.01.95c1.17.63,2.08,1.5,2.74,2.61s.99,2.39.99,3.86-.33,2.71-.99,3.83c-.66,1.12-1.58,2.01-2.74,2.65-1.17.64-2.5.96-4.01.96Zm0-2.91c.83,0,1.58-.18,2.23-.54.65-.36,1.16-.89,1.53-1.58.37-.69.56-1.49.56-2.42s-.19-1.75-.56-2.43c-.37-.68-.88-1.2-1.53-1.56s-1.39-.54-2.2-.54-1.57.18-2.21.54c-.64.36-1.15.88-1.53,1.56-.38.68-.57,1.49-.57,2.43s.19,1.73.57,2.42c.38.69.89,1.21,1.53,1.58.64.36,1.37.54,2.19.54Z"/>
    <path class="cls-1" d="m673.38,156.79c1.16,0,2.19.23,3.08.68s1.6,1.15,2.1,2.08c.51.93.76,2.13.76,3.6v8.31h-3.4v-7.88c0-1.29-.28-2.25-.84-2.88-.56-.63-1.37-.95-2.42-.95-.74,0-1.4.16-1.97.49-.57.33-1.01.81-1.33,1.44-.32.63-.48,1.44-.48,2.42v7.36h-3.4v-7.88c0-1.29-.28-2.25-.84-2.88s-1.37-.95-2.42-.95c-.74,0-1.4.16-1.97.49-.57.33-1.01.81-1.33,1.44-.32.63-.48,1.44-.48,2.42v7.36h-3.4v-14.5h3.23v3.86l-.57-1.14c.49-.94,1.2-1.66,2.13-2.15.93-.49,2-.73,3.19-.73,1.36,0,2.54.34,3.54,1,1,.67,1.67,1.68,2,3.04l-1.33-.46c.47-1.09,1.25-1.96,2.34-2.61,1.09-.65,2.34-.98,3.78-.98Z"/>
    <path class="cls-1" d="m683.67,176.72v-19.77h3.23v3.42l-.11,3.86.27,3.86v8.64h-3.4Zm8.04-5.08c-1.18,0-2.25-.27-3.22-.81-.97-.54-1.74-1.36-2.31-2.46s-.86-2.49-.86-4.17.28-3.1.83-4.18c.55-1.09,1.31-1.9,2.27-2.43.96-.53,2.06-.8,3.29-.8,1.43,0,2.69.31,3.79.92,1.1.62,1.96,1.48,2.61,2.58s.96,2.41.96,3.91-.32,2.81-.96,3.92-1.51,1.98-2.61,2.59c-1.1.62-2.36.92-3.79.92Zm-.38-2.91c.81,0,1.54-.18,2.19-.54.64-.36,1.15-.89,1.53-1.58.38-.69.57-1.49.57-2.42s-.19-1.75-.57-2.43c-.38-.68-.89-1.2-1.53-1.56-.64-.36-1.37-.54-2.19-.54s-1.55.18-2.2.54-1.17.88-1.55,1.56-.57,1.49-.57,2.43.19,1.73.57,2.42c.38.69.9,1.21,1.55,1.58.65.36,1.38.54,2.2.54Z"/>
    <path class="cls-1" d="m702.3,171.45v-20.15h3.4v20.15h-3.4Z"/>
    <path class="cls-1" d="m716.97,171.64c-1.61,0-3.02-.32-4.22-.96s-2.14-1.53-2.8-2.65c-.66-1.12-.99-2.4-.99-3.83s.32-2.73.96-3.84c.64-1.11,1.53-1.99,2.66-2.62,1.13-.63,2.42-.95,3.87-.95s2.67.31,3.78.92c1.1.62,1.97,1.48,2.61,2.61.63,1.12.95,2.44.95,3.97,0,.15,0,.31-.01.49,0,.18-.02.35-.04.52h-12.09v-2.25h10.29l-1.33.71c.02-.83-.15-1.57-.52-2.2-.36-.63-.86-1.13-1.48-1.49-.62-.36-1.34-.54-2.16-.54s-1.56.18-2.19.54c-.62.36-1.11.86-1.47,1.51-.35.64-.53,1.4-.53,2.27v.54c0,.87.2,1.64.6,2.31.4.67.96,1.19,1.68,1.55s1.56.54,2.5.54c.81,0,1.55-.13,2.2-.38.65-.25,1.23-.65,1.74-1.19l1.82,2.09c-.65.76-1.47,1.34-2.46,1.75-.99.41-2.11.61-3.38.61Z"/>
    <path class="cls-1" d="m725.11,159.77v-2.72h9.67v2.72h-9.67Zm7.39,11.87c-1.59,0-2.82-.41-3.69-1.24-.87-.82-1.3-2.04-1.3-3.65v-13.01h3.4v12.93c0,.69.18,1.22.53,1.6.35.38.85.57,1.48.57.76,0,1.39-.2,1.9-.6l.95,2.42c-.4.33-.89.57-1.47.73-.58.16-1.18.24-1.79.24Z"/>
    <path class="cls-1" d="m744.89,171.64c-1.61,0-3.02-.32-4.22-.96s-2.14-1.53-2.8-2.65c-.66-1.12-.99-2.4-.99-3.83s.32-2.73.96-3.84c.64-1.11,1.53-1.99,2.66-2.62,1.13-.63,2.42-.95,3.87-.95s2.67.31,3.78.92c1.1.62,1.97,1.48,2.61,2.61.63,1.12.95,2.44.95,3.97,0,.15,0,.31-.01.49,0,.18-.02.35-.04.52h-12.09v-2.25h10.29l-1.33.71c.02-.83-.15-1.57-.52-2.2-.36-.63-.86-1.13-1.48-1.49-.62-.36-1.34-.54-2.16-.54s-1.56.18-2.19.54c-.62.36-1.11.86-1.47,1.51-.35.64-.53,1.4-.53,2.27v.54c0,.87.2,1.64.6,2.31.4.67.96,1.19,1.68,1.55s1.56.54,2.5.54c.81,0,1.55-.13,2.2-.38.65-.25,1.23-.65,1.74-1.19l1.82,2.09c-.65.76-1.47,1.34-2.46,1.75-.99.41-2.11.61-3.38.61Z"/>
    <path class="cls-1" d="m769.28,171.64c-1.61,0-3.02-.32-4.22-.96s-2.14-1.53-2.8-2.65c-.66-1.12-.99-2.4-.99-3.83s.32-2.73.96-3.84c.64-1.11,1.53-1.99,2.66-2.62,1.13-.63,2.42-.95,3.87-.95s2.67.31,3.78.92c1.1.62,1.97,1.48,2.61,2.61.63,1.12.95,2.44.95,3.97,0,.15,0,.31-.01.49,0,.18-.02.35-.04.52h-12.09v-2.25h10.29l-1.33.71c.02-.83-.15-1.57-.52-2.2-.36-.63-.86-1.13-1.48-1.49-.62-.36-1.34-.54-2.16-.54s-1.56.18-2.19.54c-.62.36-1.11.86-1.47,1.51-.35.64-.53,1.4-.53,2.27v.54c0,.87.2,1.64.6,2.31.4.67.96,1.19,1.68,1.55s1.56.54,2.5.54c.81,0,1.55-.13,2.2-.38.65-.25,1.23-.65,1.74-1.19l1.82,2.09c-.65.76-1.47,1.34-2.46,1.75-.99.41-2.11.61-3.38.61Z"/>
    <path class="cls-1" d="m779.35,171.45v-20.15h3.4v20.15h-3.4Z"/>
    <path class="cls-1" d="m792.77,159.77v-2.72h9.67v2.72h-9.67Zm2.39,11.68v-15.32c0-1.52.45-2.74,1.34-3.65.9-.91,2.18-1.37,3.84-1.37.6,0,1.16.06,1.7.19.53.13.98.33,1.34.6l-.92,2.55c-.25-.2-.54-.35-.87-.45-.33-.1-.66-.15-1-.15-.71,0-1.24.19-1.6.58-.36.39-.54.97-.54,1.75v1.63l.11,1.52v12.11h-3.4Z"/>
    <path class="cls-1" d="m811.02,171.64c-1.48,0-2.81-.32-3.97-.96-1.16-.64-2.07-1.53-2.74-2.65-.67-1.12-1-2.4-1-3.83s.33-2.73,1-3.84c.67-1.11,1.58-1.99,2.74-2.62,1.16-.63,2.48-.95,3.97-.95s2.84.32,4.01.95c1.17.63,2.08,1.5,2.74,2.61s.99,2.39.99,3.86-.33,2.71-.99,3.83c-.66,1.12-1.58,2.01-2.74,2.65-1.17.64-2.5.96-4.01.96Zm0-2.91c.83,0,1.58-.18,2.23-.54.65-.36,1.16-.89,1.53-1.58.37-.69.56-1.49.56-2.42s-.19-1.75-.56-2.43c-.37-.68-.88-1.2-1.53-1.56s-1.39-.54-2.2-.54-1.57.18-2.21.54c-.64.36-1.15.88-1.53,1.56-.38.68-.57,1.49-.57,2.43s.19,1.73.57,2.42c.38.69.89,1.21,1.53,1.58.64.36,1.37.54,2.19.54Z"/>
    <path class="cls-1" d="m822.02,171.45v-14.5h3.23v3.99l-.38-1.17c.43-.98,1.12-1.72,2.05-2.23s2.1-.76,3.49-.76v3.23c-.15-.04-.28-.06-.41-.07-.13,0-.25-.01-.38-.01-1.29,0-2.31.38-3.07,1.13-.76.75-1.14,1.87-1.14,3.35v7.03h-3.4Z"/>
    <path class="cls-1" d="m851.6,156.79c1.16,0,2.19.23,3.08.68.9.45,1.6,1.15,2.1,2.08s.76,2.13.76,3.6v8.31h-3.4v-7.88c0-1.29-.28-2.25-.84-2.88s-1.37-.95-2.42-.95c-.74,0-1.4.16-1.97.49-.57.33-1.01.81-1.33,1.44-.32.63-.48,1.44-.48,2.42v7.36h-3.4v-7.88c0-1.29-.28-2.25-.84-2.88s-1.37-.95-2.42-.95c-.74,0-1.4.16-1.97.49-.57.33-1.01.81-1.33,1.44-.32.63-.48,1.44-.48,2.42v7.36h-3.4v-14.5h3.23v3.86l-.57-1.14c.49-.94,1.2-1.66,2.13-2.15.93-.49,2-.73,3.19-.73,1.36,0,2.54.34,3.54,1,1,.67,1.67,1.68,2,3.04l-1.33-.46c.47-1.09,1.25-1.96,2.34-2.61,1.09-.65,2.34-.98,3.78-.98Z"/>
    <path class="cls-1" d="m868.03,171.64c-1.23,0-2.32-.23-3.26-.69-.94-.46-1.68-1.17-2.2-2.12-.53-.95-.79-2.15-.79-3.6v-8.28h3.4v7.82c0,1.3.29,2.28.88,2.92.59.64,1.43.96,2.51.96.8,0,1.49-.16,2.08-.49.59-.33,1.05-.81,1.38-1.47s.5-1.46.5-2.42v-7.33h3.39v14.5h-3.23v-3.91l.57,1.2c-.49.94-1.2,1.66-2.15,2.16-.94.5-1.97.75-3.1.75Z"/>
    <path class="cls-1" d="m880.39,171.45v-20.15h3.39v20.15h-3.39Z"/>
    <path class="cls-1" d="m892.61,171.64c-1.09,0-2.04-.19-2.85-.56s-1.44-.89-1.89-1.55-.67-1.41-.67-2.24.19-1.55.58-2.2c.39-.65,1.03-1.17,1.91-1.55.89-.38,2.06-.57,3.53-.57h4.21v2.25h-3.97c-1.16,0-1.94.19-2.34.56-.4.37-.6.83-.6,1.37,0,.62.24,1.1.73,1.47.49.36,1.17.54,2.04.54s1.58-.19,2.24-.57c.66-.38,1.14-.94,1.43-1.68l.57,2.04c-.33.85-.91,1.51-1.75,1.98-.84.47-1.91.71-3.19.71Zm4.56-.19v-2.93l-.19-.62v-5.13c0-1-.3-1.77-.9-2.32-.6-.55-1.5-.83-2.72-.83-.81,0-1.62.13-2.4.38-.79.25-1.45.61-2,1.06l-1.33-2.47c.78-.6,1.71-1.05,2.78-1.34s2.2-.45,3.35-.45c2.1,0,3.73.5,4.88,1.51,1.15,1,1.73,2.56,1.73,4.66v8.5h-3.21Z"/>
    <path class="cls-1" d="m904.72,171.45v-14.5h3.23v3.99l-.38-1.17c.43-.98,1.12-1.72,2.05-2.23.93-.51,2.1-.76,3.49-.76v3.23c-.14-.04-.28-.06-.41-.07-.13,0-.25-.01-.38-.01-1.29,0-2.31.38-3.07,1.13s-1.14,1.87-1.14,3.35v7.03h-3.39Z"/>
    <path class="cls-1" d="m917.71,154.56c-.63,0-1.15-.2-1.56-.6-.41-.4-.61-.88-.61-1.44s.2-1.06.61-1.45c.41-.39.93-.58,1.56-.58s1.15.19,1.56.56.61.84.61,1.4c0,.6-.2,1.1-.6,1.51-.4.41-.92.61-1.58.61Zm-1.71,16.89v-14.5h3.39v14.5h-3.39Z"/>
    <path class="cls-1" d="m930.36,171.64c-1.48,0-2.81-.32-3.96-.96-1.16-.64-2.07-1.53-2.74-2.65-.67-1.12-1-2.4-1-3.83s.33-2.73,1-3.84c.67-1.11,1.58-1.99,2.74-2.62,1.16-.63,2.48-.95,3.96-.95s2.84.32,4.01.95,2.08,1.5,2.74,2.61c.66,1.1.99,2.39.99,3.86s-.33,2.71-.99,3.83c-.66,1.12-1.58,2.01-2.74,2.65s-2.5.96-4.01.96Zm0-2.91c.83,0,1.58-.18,2.23-.54.65-.36,1.16-.89,1.53-1.58.37-.69.56-1.49.56-2.42s-.19-1.75-.56-2.43-.88-1.2-1.53-1.56c-.65-.36-1.38-.54-2.2-.54s-1.57.18-2.21.54c-.64.36-1.15.88-1.54,1.56-.38.68-.57,1.49-.57,2.43s.19,1.73.57,2.42c.38.69.89,1.21,1.54,1.58.64.36,1.37.54,2.19.54Z"/>
    <path class="cls-1" d="m948.86,176.72v-19.77h3.23v3.42l-.11,3.86.27,3.86v8.64h-3.39Zm8.04-5.08c-1.18,0-2.25-.27-3.22-.81-.97-.54-1.74-1.36-2.31-2.46s-.86-2.49-.86-4.17.28-3.1.83-4.18c.55-1.09,1.31-1.9,2.27-2.43.96-.53,2.05-.8,3.29-.8,1.43,0,2.69.31,3.79.92,1.09.62,1.96,1.48,2.61,2.58.64,1.1.96,2.41.96,3.91s-.32,2.81-.96,3.92c-.64,1.11-1.51,1.98-2.61,2.59-1.1.62-2.36.92-3.79.92Zm-.38-2.91c.81,0,1.54-.18,2.19-.54.64-.36,1.15-.89,1.54-1.58.38-.69.57-1.49.57-2.42s-.19-1.75-.57-2.43c-.38-.68-.89-1.2-1.54-1.56s-1.37-.54-2.19-.54-1.55.18-2.2.54c-.65.36-1.17.88-1.55,1.56-.38.68-.57,1.49-.57,2.43s.19,1.73.57,2.42c.38.69.9,1.21,1.55,1.58.65.36,1.38.54,2.2.54Z"/>
    <path class="cls-1" d="m971.67,171.64c-1.09,0-2.04-.19-2.85-.56s-1.44-.89-1.89-1.55-.67-1.41-.67-2.24.19-1.55.58-2.2c.39-.65,1.03-1.17,1.91-1.55.89-.38,2.06-.57,3.53-.57h4.21v2.25h-3.97c-1.16,0-1.94.19-2.34.56-.4.37-.6.83-.6,1.37,0,.62.24,1.1.73,1.47.49.36,1.17.54,2.04.54s1.58-.19,2.24-.57c.66-.38,1.14-.94,1.43-1.68l.57,2.04c-.33.85-.91,1.51-1.75,1.98-.84.47-1.91.71-3.19.71Zm4.56-.19v-2.93l-.19-.62v-5.13c0-1-.3-1.77-.9-2.32-.6-.55-1.5-.83-2.72-.83-.81,0-1.62.13-2.4.38-.79.25-1.45.61-2,1.06l-1.33-2.47c.78-.6,1.71-1.05,2.78-1.34s2.2-.45,3.35-.45c2.1,0,3.73.5,4.88,1.51,1.15,1,1.73,2.56,1.73,4.66v8.5h-3.21Z"/>
    <path class="cls-1" d="m983.78,171.45v-14.5h3.23v3.99l-.38-1.17c.43-.98,1.12-1.72,2.05-2.23.93-.51,2.1-.76,3.49-.76v3.23c-.14-.04-.28-.06-.41-.07-.13,0-.25-.01-.38-.01-1.29,0-2.31.38-3.07,1.13s-1.14,1.87-1.14,3.35v7.03h-3.39Z"/>
    <path class="cls-1" d="m998.4,171.64c-1.09,0-2.04-.19-2.85-.56s-1.44-.89-1.89-1.55-.67-1.41-.67-2.24.19-1.55.58-2.2c.39-.65,1.03-1.17,1.91-1.55.89-.38,2.06-.57,3.53-.57h4.21v2.25h-3.97c-1.16,0-1.94.19-2.34.56-.4.37-.6.83-.6,1.37,0,.62.24,1.1.73,1.47.49.36,1.17.54,2.04.54s1.58-.19,2.24-.57c.66-.38,1.14-.94,1.43-1.68l.57,2.04c-.33.85-.91,1.51-1.75,1.98-.84.47-1.91.71-3.19.71Zm4.56-.19v-2.93l-.19-.62v-5.13c0-1-.3-1.77-.9-2.32-.6-.55-1.5-.83-2.72-.83-.81,0-1.62.13-2.4.38-.79.25-1.45.61-2,1.06l-1.33-2.47c.78-.6,1.71-1.05,2.78-1.34s2.2-.45,3.35-.45c2.1,0,3.73.5,4.88,1.51,1.15,1,1.73,2.56,1.73,4.66v8.5h-3.21Z"/>
    <path class="cls-1" d="m1022.49,171.64c-1.21,0-2.38-.16-3.49-.48-1.11-.32-2-.7-2.65-1.15l1.3-2.58c.65.42,1.43.76,2.34,1.03.91.27,1.81.41,2.72.41,1.07,0,1.84-.15,2.32-.43.48-.29.72-.68.72-1.17,0-.4-.16-.7-.49-.91-.33-.21-.75-.37-1.28-.48-.53-.11-1.11-.21-1.75-.3-.64-.09-1.29-.21-1.93-.37-.64-.15-1.23-.38-1.75-.68-.53-.3-.95-.7-1.28-1.21-.33-.51-.49-1.18-.49-2.01,0-.92.26-1.72.79-2.4.52-.68,1.26-1.2,2.21-1.58.95-.37,2.08-.56,3.38-.56.98,0,1.96.11,2.96.33s1.82.53,2.47.92l-1.3,2.58c-.69-.42-1.38-.7-2.08-.86-.7-.15-1.39-.23-2.08-.23-1.03,0-1.8.15-2.29.46-.5.31-.75.7-.75,1.17,0,.43.16.76.49.98.33.22.75.39,1.28.52.52.13,1.11.23,1.75.31.64.08,1.28.2,1.92.37.63.16,1.22.39,1.75.67.53.28.96.67,1.29,1.18.33.51.49,1.17.49,1.98,0,.91-.27,1.69-.8,2.36-.54.67-1.29,1.19-2.27,1.56-.98.37-2.15.56-3.5.56Z"/>
    <path class="cls-1" d="m1038.51,171.64c-1.48,0-2.81-.32-3.96-.96-1.16-.64-2.07-1.53-2.74-2.65-.67-1.12-1-2.4-1-3.83s.33-2.73,1-3.84c.67-1.11,1.58-1.99,2.74-2.62,1.16-.63,2.48-.95,3.96-.95s2.84.32,4.01.95,2.08,1.5,2.74,2.61c.66,1.1.99,2.39.99,3.86s-.33,2.71-.99,3.83c-.66,1.12-1.58,2.01-2.74,2.65s-2.5.96-4.01.96Zm0-2.91c.83,0,1.58-.18,2.23-.54.65-.36,1.16-.89,1.53-1.58.37-.69.56-1.49.56-2.42s-.19-1.75-.56-2.43-.88-1.2-1.53-1.56c-.65-.36-1.38-.54-2.2-.54s-1.57.18-2.21.54c-.64.36-1.15.88-1.54,1.56-.38.68-.57,1.49-.57,2.43s.19,1.73.57,2.42c.38.69.89,1.21,1.54,1.58.64.36,1.37.54,2.19.54Z"/>
    <path class="cls-1" d="m1049.51,171.45v-20.15h3.39v20.15h-3.39Z"/>
    <path class="cls-1" d="m1059.07,154.56c-.63,0-1.15-.2-1.56-.6-.41-.4-.61-.88-.61-1.44s.2-1.06.61-1.45c.41-.39.93-.58,1.56-.58s1.15.19,1.56.56.61.84.61,1.4c0,.6-.2,1.1-.6,1.51-.4.41-.92.61-1.58.61Zm-1.71,16.89v-14.5h3.39v14.5h-3.39Z"/>
    <path class="cls-1" d="m1071.86,171.64c-1.52,0-2.88-.32-4.06-.96-1.19-.64-2.11-1.53-2.78-2.65-.67-1.12-1-2.4-1-3.83s.33-2.73,1-3.84c.67-1.11,1.6-1.99,2.78-2.62,1.19-.63,2.54-.95,4.06-.95,1.41,0,2.66.29,3.73.86,1.08.57,1.9,1.41,2.46,2.51l-2.61,1.52c-.43-.69-.96-1.19-1.59-1.52-.62-.33-1.3-.49-2.02-.49-.83,0-1.58.18-2.25.54s-1.19.88-1.58,1.56c-.38.68-.57,1.49-.57,2.43s.19,1.75.57,2.43c.38.68.91,1.2,1.58,1.56.67.36,1.42.54,2.25.54.72,0,1.4-.16,2.02-.49.62-.33,1.15-.83,1.59-1.52l2.61,1.52c-.56,1.09-1.38,1.92-2.46,2.51-1.08.59-2.32.88-3.73.88Z"/>
    <path class="cls-1" d="m1082.56,154.56c-.63,0-1.15-.2-1.56-.6-.41-.4-.61-.88-.61-1.44s.2-1.06.61-1.45c.41-.39.93-.58,1.56-.58s1.15.19,1.56.56.61.84.61,1.4c0,.6-.2,1.1-.6,1.51-.4.41-.92.61-1.58.61Zm-1.71,16.89v-14.5h3.39v14.5h-3.39Z"/>
    <path class="cls-1" d="m1086.77,159.77v-2.72h9.67v2.72h-9.67Zm7.39,11.87c-1.59,0-2.83-.41-3.69-1.24-.87-.82-1.3-2.04-1.3-3.65v-13.01h3.4v12.93c0,.69.18,1.22.53,1.6.35.38.85.57,1.48.57.76,0,1.39-.2,1.9-.6l.95,2.42c-.4.33-.89.57-1.47.73-.58.16-1.18.24-1.79.24Z"/>
    <path class="cls-1" d="m1104.59,171.64c-1.09,0-2.04-.19-2.85-.56s-1.44-.89-1.89-1.55-.67-1.41-.67-2.24.19-1.55.58-2.2c.39-.65,1.03-1.17,1.91-1.55.89-.38,2.06-.57,3.53-.57h4.21v2.25h-3.97c-1.16,0-1.94.19-2.34.56-.4.37-.6.83-.6,1.37,0,.62.24,1.1.73,1.47.49.36,1.17.54,2.04.54s1.58-.19,2.24-.57c.66-.38,1.14-.94,1.43-1.68l.57,2.04c-.33.85-.91,1.51-1.75,1.98-.84.47-1.91.71-3.19.71Zm4.56-.19v-2.93l-.19-.62v-5.13c0-1-.3-1.77-.9-2.32-.6-.55-1.5-.83-2.72-.83-.81,0-1.62.13-2.4.38-.79.25-1.45.61-2,1.06l-1.33-2.47c.78-.6,1.71-1.05,2.78-1.34s2.2-.45,3.35-.45c2.1,0,3.73.5,4.88,1.51,1.15,1,1.73,2.56,1.73,4.66v8.5h-3.21Z"/>
    <path class="cls-1" d="m1116.7,171.45v-14.5h3.23v3.99l-.38-1.17c.43-.98,1.12-1.72,2.05-2.23.93-.51,2.1-.76,3.49-.76v3.23c-.14-.04-.28-.06-.41-.07-.13,0-.25-.01-.38-.01-1.29,0-2.31.38-3.07,1.13s-1.14,1.87-1.14,3.35v7.03h-3.39Z"/>
    <path class="cls-1" d="m1140.09,171.64c-1.21,0-2.38-.16-3.49-.48-1.11-.32-2-.7-2.65-1.15l1.3-2.58c.65.42,1.43.76,2.34,1.03.91.27,1.81.41,2.72.41,1.07,0,1.84-.15,2.32-.43.48-.29.72-.68.72-1.17,0-.4-.16-.7-.49-.91-.33-.21-.75-.37-1.28-.48-.53-.11-1.11-.21-1.75-.3-.64-.09-1.29-.21-1.93-.37-.64-.15-1.23-.38-1.75-.68-.53-.3-.95-.7-1.28-1.21-.33-.51-.49-1.18-.49-2.01,0-.92.26-1.72.79-2.4.52-.68,1.26-1.2,2.21-1.58.95-.37,2.08-.56,3.38-.56.98,0,1.96.11,2.96.33s1.82.53,2.47.92l-1.3,2.58c-.69-.42-1.38-.7-2.08-.86-.7-.15-1.39-.23-2.08-.23-1.03,0-1.8.15-2.29.46-.5.31-.75.7-.75,1.17,0,.43.16.76.49.98.33.22.75.39,1.28.52.52.13,1.11.23,1.75.31.64.08,1.28.2,1.92.37.63.16,1.22.39,1.75.67.53.28.96.67,1.29,1.18.33.51.49,1.17.49,1.98,0,.91-.27,1.69-.8,2.36-.54.67-1.29,1.19-2.27,1.56-.98.37-2.15.56-3.5.56Z"/>
    <path class="cls-1" d="m1155.73,171.64c-1.23,0-2.32-.23-3.26-.69-.94-.46-1.68-1.17-2.2-2.12-.53-.95-.79-2.15-.79-3.6v-8.28h3.4v7.82c0,1.3.29,2.28.88,2.92.59.64,1.43.96,2.51.96.8,0,1.49-.16,2.08-.49.59-.33,1.05-.81,1.38-1.47s.5-1.46.5-2.42v-7.33h3.39v14.5h-3.23v-3.91l.57,1.2c-.49.94-1.2,1.66-2.15,2.16-.94.5-1.97.75-3.1.75Z"/>
    <path class="cls-1" d="m1180.07,171.64c-1.21,0-2.38-.16-3.49-.48-1.11-.32-2-.7-2.65-1.15l1.3-2.58c.65.42,1.43.76,2.34,1.03.91.27,1.81.41,2.72.41,1.07,0,1.84-.15,2.32-.43.48-.29.72-.68.72-1.17,0-.4-.16-.7-.49-.91-.33-.21-.75-.37-1.28-.48-.53-.11-1.11-.21-1.75-.3-.64-.09-1.29-.21-1.93-.37-.64-.15-1.23-.38-1.75-.68-.53-.3-.95-.7-1.28-1.21-.33-.51-.49-1.18-.49-2.01,0-.92.26-1.72.79-2.4.52-.68,1.26-1.2,2.21-1.58.95-.37,2.08-.56,3.38-.56.98,0,1.96.11,2.96.33s1.82.53,2.47.92l-1.3,2.58c-.69-.42-1.38-.7-2.08-.86-.7-.15-1.39-.23-2.08-.23-1.03,0-1.8.15-2.29.46-.5.31-.75.7-.75,1.17,0,.43.16.76.49.98.33.22.75.39,1.28.52.52.13,1.11.23,1.75.31.64.08,1.28.2,1.92.37.63.16,1.22.39,1.75.67.53.28.96.67,1.29,1.18.33.51.49,1.17.49,1.98,0,.91-.27,1.69-.8,2.36-.54.67-1.29,1.19-2.27,1.56-.98.37-2.15.56-3.5.56Z"/>
    <path class="cls-1" d="m1196.39,171.64c-1.61,0-3.02-.32-4.22-.96-1.21-.64-2.14-1.53-2.8-2.65-.66-1.12-.99-2.4-.99-3.83s.32-2.73.96-3.84c.64-1.11,1.53-1.99,2.66-2.62,1.13-.63,2.42-.95,3.87-.95s2.67.31,3.78.92c1.1.62,1.97,1.48,2.61,2.61.63,1.12.95,2.44.95,3.97,0,.15,0,.31-.01.49s-.02.35-.04.52h-12.09v-2.25h10.29l-1.33.71c.02-.83-.15-1.57-.52-2.2-.36-.63-.86-1.13-1.48-1.49-.62-.36-1.34-.54-2.16-.54s-1.56.18-2.19.54c-.62.36-1.11.86-1.47,1.51-.35.64-.53,1.4-.53,2.27v.54c0,.87.2,1.64.6,2.31.4.67.96,1.19,1.68,1.55.72.36,1.56.54,2.5.54.81,0,1.55-.13,2.2-.38.65-.25,1.23-.65,1.74-1.19l1.82,2.09c-.65.76-1.47,1.34-2.46,1.75-.99.41-2.11.61-3.38.61Z"/>
    <path class="cls-1" d="m1206.47,171.45v-14.5h3.23v3.99l-.38-1.17c.43-.98,1.12-1.72,2.05-2.23.93-.51,2.1-.76,3.49-.76v3.23c-.14-.04-.28-.06-.41-.07-.13,0-.25-.01-.38-.01-1.29,0-2.31.38-3.07,1.13s-1.14,1.87-1.14,3.35v7.03h-3.39Z"/>
    <path class="cls-1" d="m1222.14,171.45l-6.22-14.5h3.53l5.35,12.79h-1.74l5.54-12.79h3.26l-6.22,14.5h-3.5Z"/>
    <path class="cls-1" d="m1235.69,154.56c-.63,0-1.15-.2-1.56-.6-.41-.4-.61-.88-.61-1.44s.2-1.06.61-1.45c.41-.39.93-.58,1.56-.58s1.15.19,1.56.56.61.84.61,1.4c0,.6-.2,1.1-.6,1.51-.4.41-.92.61-1.58.61Zm-1.71,16.89v-14.5h3.39v14.5h-3.39Z"/>
    <path class="cls-1" d="m1248.48,171.64c-1.52,0-2.88-.32-4.06-.96-1.19-.64-2.11-1.53-2.78-2.65-.67-1.12-1-2.4-1-3.83s.33-2.73,1-3.84c.67-1.11,1.6-1.99,2.78-2.62,1.19-.63,2.54-.95,4.06-.95,1.41,0,2.66.29,3.73.86,1.08.57,1.9,1.41,2.46,2.51l-2.61,1.52c-.43-.69-.96-1.19-1.59-1.52-.62-.33-1.3-.49-2.02-.49-.83,0-1.58.18-2.25.54s-1.19.88-1.58,1.56c-.38.68-.57,1.49-.57,2.43s.19,1.75.57,2.43c.38.68.91,1.2,1.58,1.56.67.36,1.42.54,2.25.54.72,0,1.4-.16,2.02-.49.62-.33,1.15-.83,1.59-1.52l2.61,1.52c-.56,1.09-1.38,1.92-2.46,2.51-1.08.59-2.32.88-3.73.88Z"/>
    <path class="cls-1" d="m1259.18,154.56c-.63,0-1.15-.2-1.56-.6-.41-.4-.61-.88-.61-1.44s.2-1.06.61-1.45c.41-.39.93-.58,1.56-.58s1.15.19,1.56.56.61.84.61,1.4c0,.6-.2,1.1-.6,1.51-.4.41-.92.61-1.58.61Zm-1.71,16.89v-14.5h3.39v14.5h-3.39Z"/>
    <path class="cls-1" d="m1271.84,171.64c-1.48,0-2.81-.32-3.96-.96-1.16-.64-2.07-1.53-2.74-2.65-.67-1.12-1-2.4-1-3.83s.33-2.73,1-3.84c.67-1.11,1.58-1.99,2.74-2.62,1.16-.63,2.48-.95,3.96-.95s2.84.32,4.01.95,2.08,1.5,2.74,2.61c.66,1.1.99,2.39.99,3.86s-.33,2.71-.99,3.83c-.66,1.12-1.58,2.01-2.74,2.65s-2.5.96-4.01.96Zm0-2.91c.83,0,1.58-.18,2.23-.54.65-.36,1.16-.89,1.53-1.58.37-.69.56-1.49.56-2.42s-.19-1.75-.56-2.43-.88-1.2-1.53-1.56c-.65-.36-1.38-.54-2.2-.54s-1.57.18-2.21.54c-.64.36-1.15.88-1.54,1.56-.38.68-.57,1.49-.57,2.43s.19,1.73.57,2.42c.38.69.89,1.21,1.54,1.58.64.36,1.37.54,2.19.54Z"/>
  </g>
</svg>